<svg xmlns="http://www.w3.org/2000/svg" viewBox="0 0 469 469">
  <path d="M171.45 165.3C225.35 165.3 245.6 228.2 155.3 285.5C149.3 289.7 139 295 126.2 301C110.35 308.3 91.9 316.5 73.4 325.6C54.9 334.7 36.3 344.7 21.4 355.6C6.5 366.5 0 374.3 0 387.3C0 397.8 13.6 403 24.6 399.6C33.27 396.95 41.87 394.3 50.25 391.55C62.54 387.64 74.34 383.56 85.05 378.8C117.05 364.6 143.5 345.7 157.05 332.1C164.65 324.5 167.35 319.7 173.65 307.1C180.15 294.1 193.95 266.5 201.65 241.4C209.35 216.3 212.75 190.7 209.65 169.1C207.85 156.7 203.85 146.3 196.15 138.3C188.45 130.3 177.05 124.7 161.95 123.8C146.85 122.9 128.05 126.7 109.75 146.8C91.45 166.9 68.75 206.2 48.65 271.3C39.05 304.8 30.35 340.7 21.95 376.9C17.75 394.5 13.65 412.2 9.05 429.4C0.45 459.8 60.45 462.1 69.05 431.7C71.37 424.3 73.87 416.7 76.42 409.05C84.26 386.71 92.6 363.2 97.95 341.7C106.75 306.2 116.15 271.5 125.65 245.7C135.15 219.9 144.75 203 152.85 192.7C160.95 182.4 170.05 165.3 171.45 165.3Z" fill="black"/>
  <path d="M173.6 171.9C173.6 171.9 142.8 212.2 135.6 259.7C133.7 272 132.9 285.2 126.4 298C117.4 316.4 88.2 329.5 76.9 325.5C66.81 321.96 74.7 291.4 78.4 277.3C82.1 263.2 86.4 247.6 91.4 230.5C96.4 213.4 102 194.8 111 178.4C120 162 132.3 151.7 151.3 153.2C170.3 154.7 173.6 171.9 173.6 171.9Z" fill="#F26741"/>
  <path d="M274.6 178.2C286 178.2 295.2 187.4 295.2 198.8V357.8C295.2 369.2 286 378.4 274.6 378.4H254C242.6 378.4 233.4 369.2 233.4 357.8V198.8C233.4 187.4 242.6 178.2 254 178.2H274.6Z" fill="black"/>
  <path d="M354.5 273C336.3 269.5 326.7 258.7 326.7 238.3V219.9C326.7 199.5 340.4 178.2 368.3 178.2H410.4C422 178.2 431.5 187.6 431.5 199.3V211.8C431.5 223.5 422 233 410.4 233H372.1C368.1 233 365 236.3 365 240.3C365 244.3 368.1 247.5 372.1 247.5H410.3C422 247.5 431.4 257 431.4 268.6V280.3C431.4 291.9 422 301.4 410.3 301.4H372.3C368.2 301.4 365 304.5 365 308.6C365 312.7 368.2 315.9 372.3 315.9H410.4C422 315.9 431.5 325.3 431.5 337V353.3C431.5 364.9 422 374.4 410.4 374.4H365.1C342.1 374.4 318.9 356.6 318.9 326.8C318.9 296.1 336.5 277.8 354.5 273Z" fill="black"/>
  <path d="M329.8 178.2H364.6C376.2 178.2 385.6 187.6 385.6 199.3V211.8C385.6 223.5 376.2 233 364.6 233H326.7C326.7 190.6 329.8 178.2 329.8 178.2Z" fill="black"/>
  <path d="M373.7 336C360.3 374.4 331.9 374.4 329.8 374.4H364.6C376.2 374.4 385.6 365 385.6 353.3V337C385.6 337 387.2 297.5 373.7 336Z" fill="black"/>
  <path d="M323.4 267.7H364.6C376.2 267.7 385.6 277.1 385.6 288.7V300.4C385.6 312 376.2 321.5 364.6 321.5H326.3C326.3 303.2 323.4 267.7 323.4 267.7Z" fill="black"/>
  <path d="M446.7 349.3C447.2 351.2 446.8 351.6 445.8 353C445.1 353.9 444.1 355.2 443.1 356C442.3 356.7 441.2 357.3 440.2 357.6C439.2 357.9 438.3 358 437.4 358C434.8 358 432.1 357 430.7 354.6C429.3 352.2 429.2 349.5 430.5 347C431.8 344.5 434.2 343.1 437.2 343.1C438.4 343.1 439.5 343.4 440.6 343.9C441.7 344.4 442.7 345.2 443.5 346.1C444.2 347 444.8 347.9 445.3 348.9C445.7 349.5 446.5 348.7 446.7 349.3Z" fill="black"/>
  <path d="M445.3 330.4C445.3 328.7 445.2 328.2 446.5 327.5C447.7 326.7 449.1 326.9 450.1 327.9C451.1 328.9 451.7 330.4 451.7 332.5V334.6C451.7 336.7 451.1 338.2 450.1 339.2C449.1 340.2 447.7 340.4 446.5 339.7C445.2 338.9 445.3 338.4 445.3 336.7V330.4Z" fill="black"/>
  <path d="M446.7 313.7C446.4 312.7 446.2 312.7 446.5 311C446.7 309.8 447.5 308.5 448.3 307.7C449.3 306.7 450.5 306.2 452 306.2C453.5 306.2 454.7 306.6 455.8 307.5C456.9 308.4 457.5 309.6 457.6 311.2C457.7 312.8 457.2 314.1 456.2 315.2C455.2 316.3 453.9 316.9 452.3 316.9C450.9 316.9 449.2 316.4 448.1 315.6C447.1 314.9 447 314.7 446.7 313.7Z" fill="black"/>
  <path d="M324.1 406.6V406.9H327C326.8 409.3 324.6 410.9 321.4 410.9C317.6 410.9 315.3 408.6 315.3 404.8C315.3 401 317.6 398.7 321.3 398.7C324.8 398.7 326.9 400.7 327 403.2H324.1C323.9 402 322.9 401.3 321.3 401.3C319.2 401.3 318.1 402.7 318.1 404.8C318.1 406.9 319.2 408.3 321.4 408.3C322.9 408.2 323.9 407.6 324.1 406.6Z" fill="black"/>
  <path d="M337.6 410.7L335.7 406.2H335.6H333.1V410.7H330.3V398.9H335.7C338.5 398.9 340.3 400.3 340.3 402.6C340.3 404.4 339.3 405.5 337.7 406.1L339.9 410.7H337.6ZM333.1 403.7H335.6C336.8 403.7 337.5 403.3 337.5 402.5C337.5 401.8 336.9 401.4 335.6 401.4H333.1V403.7Z" fill="black"/>
  <path d="M351.7 401.5H347.5V404H351.2V406.5H347.5V408.1H351.7V410.6H344.7V398.8H351.7V401.5Z" fill="black"/>
  <path d="M363.9 401.5H359.6V404H363.4V406.5H359.6V410.7H356.8V398.9H363.9V401.5Z" fill="black"/>
  <path d="M375.2 410.7L373.3 406.2H373.2H370.7V410.7H367.9V398.9H373.3C376.1 398.9 377.9 400.3 377.9 402.6C377.9 404.4 376.9 405.5 375.3 406.1L377.5 410.7H375.2ZM370.7 403.7H373.2C374.4 403.7 375.1 403.3 375.1 402.5C375.1 401.8 374.5 401.4 373.2 401.4H370.7V403.7Z" fill="black"/>
  <path d="M387.6 401.4V410.7H384.8V401.4H381.7V398.8H390.7V401.4H387.6Z" fill="black"/>
  <path d="M400.4 401.5H396.2V404H399.9V406.5H396.2V408.1H400.4V410.6H393.4V398.8H400.4V401.5Z" fill="black"/>
  <path d="M411.4 410.7H408.6V401.5H405.6V398.9H414.4V401.5H411.4V410.7Z" fill="black"/>
  <path d="M423.5 407.3H420.2L419.6 410.7H416.8L420.2 398.9H423.6L427 410.7H424.2L423.5 407.3ZM422.8 404.9L422.2 402.2C422.1 401.7 422 401.1 421.9 400.6H421.8C421.7 401.1 421.6 401.7 421.5 402.2L420.9 404.9H422.8Z" fill="black"/>
  <path d="M437.5 410.7H434.7V401.5H431.7V398.9H440.5V401.5H437.5V410.7Z" fill="black"/>
</svg>
